<?xml version="1.0" encoding="UTF-8"?> <svg xmlns="http://www.w3.org/2000/svg" xmlns:xlink="http://www.w3.org/1999/xlink" viewBox="0 0 126.98 32.66"> <defs> <style>.cls-1{fill:#fff;}.cls-1,.cls-3{fill-rule:evenodd;}.cls-2{mask:url(#mask);}.cls-3{fill:#004aff;}</style> <mask id="mask" x="0" y="0" width="32.66" height="32.66" maskUnits="userSpaceOnUse"> <g id="mask-2"> <polygon id="path-1" class="cls-1" points="0 0 32.66 0 32.66 32.66 0 32.66 0 0"></polygon> </g> </mask> </defs> <title>Ресурс 1</title> <g id="Слой_2" data-name="Слой 2"> <g id="Слой_1-2" data-name="Слой 1"> <g id="favicon"> <g id="blue-globe"> <g class="cls-2"> <path id="Fill-1" class="cls-3" d="M19.74,16.9a2.85,2.85,0,0,0-2.84,2.84,2.71,2.71,0,0,0,2.78,2.73,2.86,2.86,0,0,0,2.79-2.79,2.71,2.71,0,0,0-2.73-2.78m-6.82,0a2.71,2.71,0,0,0-2.73,2.78A2.85,2.85,0,0,0,13,22.47a2.72,2.72,0,0,0,2.78-2.73,2.86,2.86,0,0,0-2.84-2.84m6.76-6.71a2.71,2.71,0,0,0-2.78,2.73,2.86,2.86,0,0,0,2.84,2.84A2.72,2.72,0,0,0,22.47,13a2.85,2.85,0,0,0-2.79-2.79M23.53,13a2.25,2.25,0,0,0,2.09,2.24,1.93,1.93,0,0,0,1.87-2.1,2.2,2.2,0,0,0-2-2.21,1.93,1.93,0,0,0-2,2.07m0,6.65a1.94,1.94,0,0,0,2,2.08,2.2,2.2,0,0,0,2-2.21,1.93,1.93,0,0,0-1.87-2.1,2.24,2.24,0,0,0-2.09,2.23M5.16,13.14A1.94,1.94,0,0,0,7,15.24,2.23,2.23,0,0,0,9.12,13a1.92,1.92,0,0,0-2-2.07,2.21,2.21,0,0,0-2,2.21m0,6.38a2.21,2.21,0,0,0,2,2.21,1.93,1.93,0,0,0,2-2.08A2.23,2.23,0,0,0,7,17.42a1.94,1.94,0,0,0-1.88,2.1m14.49,4a2.24,2.24,0,0,0-2.23,2.09,1.93,1.93,0,0,0,2.1,1.87,2.2,2.2,0,0,0,2.21-2,1.94,1.94,0,0,0-2.08-2m-6.65,0a1.93,1.93,0,0,0-2.07,2,2.2,2.2,0,0,0,2.21,2,1.93,1.93,0,0,0,2.1-1.87A2.25,2.25,0,0,0,13,23.53m15.39-4.06c0,.87.54,1.52,1.21,1.45a1.52,1.52,0,0,0,1.18-1.6c0-.82-.45-1.47-1.11-1.45a1.55,1.55,0,0,0-1.28,1.6m0-6.29a1.55,1.55,0,0,0,1.28,1.61c.66,0,1.13-.63,1.11-1.45a1.54,1.54,0,0,0-1.18-1.61c-.67-.06-1.23.59-1.21,1.45M1.87,19.32a1.53,1.53,0,0,0,1.19,1.6c.66.07,1.23-.58,1.21-1.45A1.57,1.57,0,0,0,3,17.87c-.66,0-1.12.63-1.11,1.45M23.8,25.4a1.23,1.23,0,0,0,1.38,1.34,1.77,1.77,0,0,0,1.56-1.56A1.23,1.23,0,0,0,25.4,23.8a1.81,1.81,0,0,0-1.6,1.6M5.92,25.18a1.75,1.75,0,0,0,1.56,1.56A1.23,1.23,0,0,0,8.85,25.4a1.79,1.79,0,0,0-1.6-1.6,1.23,1.23,0,0,0-1.33,1.38M23.8,7.25a1.79,1.79,0,0,0,1.6,1.6,1.23,1.23,0,0,0,1.34-1.37,1.75,1.75,0,0,0-1.56-1.56A1.23,1.23,0,0,0,23.8,7.25M5.92,7.48A1.22,1.22,0,0,0,7.25,8.85a1.77,1.77,0,0,0,1.6-1.6A1.21,1.21,0,0,0,7.48,5.92,1.73,1.73,0,0,0,5.92,7.48M31.47,19.26c0,.54.29.94.62.89s.57-.51.57-1-.23-.91-.56-.89-.62.48-.63,1m-19,12.83c.05.33.51.57,1,.57s.91-.23.89-.56-.48-.62-1-.63-.94.28-.89.62m5.73,0c0,.33.38.55.89.56s1-.24,1-.57-.35-.63-.89-.62-1,.31-1,.63M12.51.57c0,.33.35.62.89.62s1-.31,1-.64S14,0,13.53,0s-1,.23-1,.57m5.73,0c0,.33.48.63,1,.64s.94-.29.89-.62-.51-.57-1-.57-.91.23-.89.55M31.47,13.4c0,.54.31,1,.63,1s.55-.38.56-.89-.24-1-.57-1-.63.35-.62.89M0,19.13c0,.51.23,1,.57,1s.62-.35.62-.89-.31-1-.64-1-.55.37-.55.89m0-5.6c0,.51.23.91.55.89s.63-.48.64-1-.29-.94-.62-.89S0,13,0,13.53M28.54,25a.71.71,0,0,0,.78.84,1.13,1.13,0,0,0,.88-1.07c0-.53-.29-.91-.74-.85A1.19,1.19,0,0,0,28.54,25M2.46,24.75a1.12,1.12,0,0,0,.88,1.07c.46.07.81-.31.77-.84A1.19,1.19,0,0,0,3.2,23.9c-.45-.06-.77.32-.74.85M28.54,7.67a1.18,1.18,0,0,0,.92,1.08c.45.06.77-.32.74-.84a1.15,1.15,0,0,0-.88-1.08.71.71,0,0,0-.78.84M23.9,29.46c-.06.45.32.77.85.74a1.13,1.13,0,0,0,1.07-.88.71.71,0,0,0-.84-.78,1.2,1.2,0,0,0-1.08.92M6.83,29.32a1.15,1.15,0,0,0,1.08.88c.52,0,.9-.29.84-.74a1.19,1.19,0,0,0-1.07-.92.72.72,0,0,0-.85.78M23.9,3.2A1.19,1.19,0,0,0,25,4.11c.53,0,.91-.31.84-.77a1.12,1.12,0,0,0-1.07-.88c-.53,0-.91.29-.85.74M6.83,3.34c-.06.46.31.81.85.77A1.17,1.17,0,0,0,8.75,3.2c.06-.45-.32-.77-.84-.74a1.14,1.14,0,0,0-1.08.88M2.46,7.91c0,.52.29.9.74.84a1.18,1.18,0,0,0,.91-1.08.71.71,0,0,0-.77-.84,1.14,1.14,0,0,0-.88,1.08m-.59,5.43c0,.82.45,1.47,1.11,1.45a1.56,1.56,0,0,0,1.29-1.61c0-.86-.55-1.51-1.21-1.45a1.55,1.55,0,0,0-1.19,1.61M13.18,28.39c-.86,0-1.51.54-1.45,1.21a1.54,1.54,0,0,0,1.61,1.18c.82,0,1.47-.45,1.45-1.11a1.55,1.55,0,0,0-1.61-1.28m6.3,0a1.55,1.55,0,0,0-1.61,1.28c0,.66.63,1.13,1.45,1.11a1.52,1.52,0,0,0,1.6-1.18c.07-.67-.58-1.23-1.44-1.21M13.34,1.87a1.55,1.55,0,0,0-1.61,1.19c-.06.66.58,1.23,1.45,1.21A1.56,1.56,0,0,0,14.79,3c0-.66-.64-1.12-1.45-1.11m6,0c-.82,0-1.47.45-1.45,1.11a1.55,1.55,0,0,0,1.61,1.29c.86,0,1.51-.55,1.44-1.21a1.53,1.53,0,0,0-1.6-1.19m.2,3.29A1.94,1.94,0,0,0,17.42,7a2.23,2.23,0,0,0,2.23,2.08,1.93,1.93,0,0,0,2.08-2,2.21,2.21,0,0,0-2.21-2m-6.38,0a2.21,2.21,0,0,0-2.21,2,1.92,1.92,0,0,0,2.07,2A2.23,2.23,0,0,0,15.24,7a1.94,1.94,0,0,0-2.1-1.88m2.62,7.76a2.86,2.86,0,0,1-2.84,2.84A2.71,2.71,0,0,1,10.19,13,2.84,2.84,0,0,1,13,10.19a2.71,2.71,0,0,1,2.78,2.73"></path> </g> </g> </g> <path d="M44.91,21.39v-9.8h2v8h4.75v1.78Z"></path> <path d="M61.73,20.45a4.2,4.2,0,0,1-5.62,0,3.93,3.93,0,0,1-1.06-2.87v-6h2v6a2.07,2.07,0,0,0,.53,1.47,1.82,1.82,0,0,0,1.39.57,1.73,1.73,0,0,0,1.36-.57,2.1,2.1,0,0,0,.51-1.47v-6h2v6A3.86,3.86,0,0,1,61.73,20.45Z"></path> <path d="M75.67,11.59l-3.53,5.08,3.33,4.72H73.26L70.87,18l-2.43,3.39H66.23l3.54-5-3.43-4.84h2.22L71,15.08l2.44-3.49Z"></path> <path d="M79.18,21.39v-9.8h6.65v1.78H81.16v2.22h4.43v1.77H81.16v2.25h4.77v1.78Z"></path> <path d="M94.52,21.53A4.8,4.8,0,0,1,91,20.12a4.94,4.94,0,0,1-1.4-3.64A4.92,4.92,0,0,1,91,12.84a4.82,4.82,0,0,1,3.54-1.39,5.23,5.23,0,0,1,2.9.81A3.62,3.62,0,0,1,99,14.53l-1.91.57a2.22,2.22,0,0,0-.91-1.27,2.86,2.86,0,0,0-1.69-.49,2.68,2.68,0,0,0-2.07.88,3.2,3.2,0,0,0-.81,2.27,3.25,3.25,0,0,0,.81,2.28,2.7,2.7,0,0,0,2.07.87,2.92,2.92,0,0,0,1.71-.49,2.16,2.16,0,0,0,.9-1.27l1.9.57a3.67,3.67,0,0,1-1.61,2.28A5.31,5.31,0,0,1,94.52,21.53Z"></path> <path d="M111.05,20.12a5.33,5.33,0,0,1-7.22,0,4.87,4.87,0,0,1-1.42-3.64,4.86,4.86,0,0,1,1.42-3.64,5.38,5.38,0,0,1,7.22,0,4.86,4.86,0,0,1,1.42,3.64A4.87,4.87,0,0,1,111.05,20.12Zm-5.76-1.35a3.08,3.08,0,0,0,4.29,0,3.14,3.14,0,0,0,.84-2.28,3.14,3.14,0,0,0-.84-2.28,3.08,3.08,0,0,0-4.29,0,3.18,3.18,0,0,0-.83,2.28A3.18,3.18,0,0,0,105.29,18.77Z"></path> <path d="M124.54,11.59H127v9.8h-2V15.33l-2.49,6.06H120.8l-2.5-6.09v6.09h-2v-9.8h2.44l2.9,6.9Z"></path> </g> </g> </svg> 